PathFileType	4	(X/Y/Z)	Patient4_TMGait_0pt4_02_left_26.trc.trc
DataRate	CameraRate	NumFrames	NumMarkers	Units	OrigDataRate	OrigDataStartFrame	OrigNumFrames
80.000000000000	80.000000000000	6	33	mm	80.000000000000	89	       141
Frame#	Time	Sacral			L.Shoulder			Chest			R.Shoulder			Neck			R.ASIS			L.ASIS			R.Thigh.Superior			R.Thigh.Lateral			R.Thigh.Inferior			R.Patella			L.Thigh.Superior			L.Thigh.Lateral			L.Thigh.Inferior			L.Patella			L.Shank.Superior			L.Shank.Lateral			L.Shank.Inferior			R.Shank.Superior			R.Shank.Lateral			R.Shank.Inferior			R.Heel			R.Midfoot.Superior			R.Midfoot.Lateral			R.Toe			L.Heel			L.Midfoot.Lateral			L.Midfoot.Superior			L.Toe			L.Elbow			L.Wrist			R.Elbow			R.Wrist			
		X1	Y1	Z1	X2	Y2	Z2	X3	Y3	Z3	X4	Y4	Z4	X5	Y5	Z5	X6	Y6	Z6	X7	Y7	Z7	X8	Y8	Z8	X9	Y9	Z9	X10	Y10	Z10	X11	Y11	Z11	X12	Y12	Z12	X13	Y13	Z13	X14	Y14	Z14	X15	Y15	Z15	X16	Y16	Z16	X17	Y17	Z17	X18	Y18	Z18	X19	Y19	Z19	X20	Y20	Z20	X21	Y21	Z21	X22	Y22	Z22	X23	Y23	Z23	X24	Y24	Z24	X25	Y25	Z25	X26	Y26	Z26	X27	Y27	Z27	X28	Y28	Z28	X29	Y29	Z29	X30	Y30	Z30	X31	Y31	Z31	X32	Y32	Z32	X33	Y33	Z33	

89	36.090000000000	907.866574621448	1000.042079893574	463.938435146537	1099.207579057577	1433.117504368019	294.043741896232	1189.849819830889	1364.148092584635	461.790867375347	1091.436947618329	1433.447865864306	629.786094440781	1068.751064249335	1492.062133742736	450.866217901863	1134.448874848860	940.749146013623	591.898252385770	1131.678626743338	960.479268660508	316.430748489257	1189.817205090558	746.096674449201	565.518855405187	1115.894500332584	634.174339642565	627.591383900809	1199.061617154415	585.434300882828	549.773798721023	1205.724780711933	496.968602429535	558.834978763903	1167.459328586531	737.714938624348	340.207972751628	1079.753696432353	624.729450616223	269.412098056549	1164.675471783455	539.902519031120	326.670715106838	1157.787853256039	457.192380808729	322.741744930308	1095.210491981817	397.211835015307	315.846524877910	960.025119586529	340.149682620861	266.903142221837	959.430169063339	211.387823007977	322.950666280193	1177.606996729207	407.157322725662	568.537698087529	1107.199874396282	304.552056020435	633.889225082775	1150.610312511577	208.109725623857	573.461610386932	1019.398735171544	42.419340132236	549.446455876129	1189.977549332755	98.340031474556	582.941881055944	1103.772075382344	37.407074698411	623.236519505013	1311.413481915775	47.505031104861	608.531220759019	780.064212300631	117.191869738221	363.151317898135	842.827733884011	86.026681955426	280.626962018242	943.334990441199	115.092293234281	301.149919657296	1041.229889403862	34.343290257419	267.573499534544	1114.400525110530	1089.933193086698	155.423102310589	1332.297725214206	943.944800554556	157.617258740633	1025.990321825551	1089.755579985169	744.220185293831	1098.413326828822	838.559095629119	755.464269024877	
90	36.102500000000	908.284147466539	1000.565870178083	467.248693245729	1098.082837966415	1433.888356655464	296.584516606715	1190.163874366244	1364.718742582768	463.487078820052	1093.156274701433	1433.742611012596	632.356194343037	1068.883494989768	1492.583651212834	453.659079167984	1135.553894130695	941.300373257107	593.655506720082	1131.758340053905	961.423234654826	318.135495859777	1189.072356612544	745.553182054463	567.993648845652	1113.637711625270	634.020231660137	629.310893021424	1196.643204423538	584.810467196617	551.627831753209	1202.438159801725	496.408620644063	560.078087553011	1171.869273063104	740.541965854109	342.147560946293	1088.128754726832	625.639354095687	270.694978485405	1175.325437523582	542.475973897438	327.898976001630	1169.352055800810	458.724695347512	323.492576566890	1105.185492721119	398.703566749308	316.638760410299	968.179731221008	345.941621347016	267.737690808356	963.986485800507	217.129167646201	323.379173126572	1174.073626853734	406.828040759296	569.524870979471	1103.375707843520	304.322744434013	634.489335587764	1146.278205739010	207.871944955146	573.820561886883	1014.405560401926	42.483486917963	549.552564760711	1185.070724148259	98.170882684483	583.166017912627	1098.765912463478	37.395299970312	623.369489571990	1306.472669538629	47.055815503059	608.771363429156	781.226582920488	130.571830509486	363.345640656945	842.580226263897	96.266830217193	280.860754634998	944.598453720004	120.072862704357	301.401796246095	1037.644277015960	33.726162098019	268.059067618591	1108.412387376932	1089.534553720991	159.604938594857	1321.544653529413	936.077457849588	159.528723170046	1034.260657071028	1088.961916488394	748.187854076320	1115.536290532078	840.430951606519	758.145166836889	
91	36.115000000000	908.539797678582	1001.054776237852	470.450398400805	1096.841542745161	1434.536036501727	298.895519984859	1190.428880338425	1365.191976861775	464.917260954689	1094.947864322871	1434.004198154589	634.689245141034	1069.026860945000	1493.045890642046	456.210529483510	1136.468557325478	941.786119760370	595.256239881181	1131.440190869424	962.143269845688	319.783667600527	1188.099605775281	744.970241926166	570.218990167988	1111.311791021089	633.851985866622	630.899086339722	1194.020371236062	584.192686987407	553.246008963577	1198.957447410573	495.872037696358	561.148759911120	1176.116435339539	743.533831900405	344.012937028226	1096.391571932613	626.830145517412	271.880009367364	1185.662729769020	545.435862318694	329.212021386785	1180.745997565701	460.725345301388	324.459892577270	1115.175916325065	400.538636241760	317.563330414450	976.627426927519	351.794633887459	268.568537152464	968.961370895183	223.032945226007	323.929068188681	1170.411327299464	406.500770042067	570.361482973518	1099.485545145433	304.097930517896	635.018051292283	1141.865417980897	207.630335235891	574.079961799875	1009.354877440032	42.549801384438	549.645522811748	1180.110182786161	97.968935069226	583.335301349635	1093.702377412717	37.380274956170	623.479241208674	1301.481718859754	46.540006585808	608.979898251617	783.179772180200	143.779904147966	363.516998129438	843.218598580741	106.648156371920	281.100420851583	946.491390318522	125.389167422807	301.834018030504	1034.865796979487	33.317017236013	268.673872639018	1102.379762253250	1089.093271533826	163.574986726219	1310.168150243128	927.975398843127	161.387714176471	1042.655157990167	1088.364418732982	752.101560073385	1133.093228239674	842.964137479081	760.582450091154	
92	36.127500000000	908.652907786468	1001.503065472103	473.516947723263	1095.515369094499	1435.061305052768	300.962745717126	1190.645361437865	1365.575851027379	466.086145078331	1096.784019978799	1434.243781698466	636.771558913373	1069.183024796013	1493.456807071264	458.496223104934	1137.195957999947	942.201676319412	596.718905285029	1130.709318093338	962.614055399356	321.405997723644	1186.950743942835	744.378056413834	572.124881598431	1109.032346489111	633.693373314725	632.352700799387	1191.269949556148	583.593434351723	554.593911848485	1195.362587189866	495.368311007720	562.039442569399	1180.086215992863	746.639647626715	345.819030689337	1104.350930516363	628.299135893257	272.975314001091	1195.494689398447	548.747641681761	330.579752634864	1191.785795742476	463.168216465503	325.581675286829	1125.017379440572	402.700185121039	318.574339743162	985.204899911704	357.554287242448	269.379545599914	974.342921732987	228.891691584576	324.554531543482	1166.689516924385	406.176921876161	571.049764347807	1095.591456628685	303.890143422847	635.493779317260	1137.419235922032	207.393515118356	574.248989245442	1004.277676165384	42.620434840713	549.734893957348	1175.121871175224	97.759434597646	583.459486653699	1088.612606208543	37.368502528867	623.574575182562	1296.467562684282	45.997337793264	609.164608590578	785.978245622912	156.262304929891	363.630955712580	844.882250929810	116.692973328078	281.322052882469	949.133564577296	130.813238773164	302.393170610026	1033.241877816726	33.192708328137	269.395670110587	1096.347764290488	1088.601718593492	167.346368479127	1298.166232736199	919.675426166259	163.175749620032	1051.155090859846	1087.974713830550	755.925217998124	1151.026364045211	846.216618215099	762.708530253414	
93	36.140000000000	908.642977072099	1001.919516871766	476.432136254462	1094.142338739497	1435.473756480604	302.779739544256	1190.816619062035	1365.887406104012	467.007614411185	1098.636939986937	1434.484286183802	638.595202568188	1069.354292041489	1493.830899254124	460.499044411825	1137.744625216888	942.546642958898	598.062523941191	1129.591083338360	962.850368272981	323.017567831539	1185.676065165479	743.798739679723	573.682116600960	1106.860183780299	633.561814752553	633.668739506051	1188.445799576510	583.018841780917	555.664859406306	1191.706298935109	494.902043571998	562.748374005478	1183.676955263729	749.814554112681	347.581760777792	1111.835804623906	630.034095238188	273.987956343428	1204.668932759302	552.367393776420	331.954153982536	1202.315205641944	466.020715768165	326.774593501566	1134.583006008747	405.160300674105	319.608931369919	993.781270034180	363.046113937068	270.146278383604	980.168800222882	234.473082559355	325.196516290634	1162.950653776933	405.859549491196	571.596911435476	1091.724909031378	303.707798415092	635.926409052130	1132.969525040029	207.170482314183	574.340598732401	999.197460219650	42.696051097621	549.826475347588	1170.125143189860	97.561701069986	583.547788110434	1083.519583722693	37.363776310596	623.661868228842	1291.449239080141	45.464618316132	609.332325439140	789.708319207633	167.444848011645	363.658171733071	847.732831567852	125.892056112486	281.498310274732	952.692921561886	136.073836004030	303.007752891244	1033.166844260064	33.404035009626	270.178578572783	1090.353075113638	1088.061135611016	170.943925181444	1285.528894692983	911.226446520975	164.874881975311	1059.736304445302	1087.813260291916	759.621736193401	1169.276175274964	850.259511549954	764.451179081128	
94	36.152500000000	908.526838277992	1002.325074983279	479.190451978657	1092.761987981627	1435.788030483759	304.348092830004	1190.949238783918	1366.147715233775	467.702119975756	1100.483260100465	1434.754903800437	640.158835312010	1069.543598661233	1494.185180913009	462.210985476651	1138.128569757899	942.823183745441	599.301919883557	1128.146675905888	962.904552106476	324.613350295630	1184.319830668908	743.245357004067	574.897034034297	1104.807840283306	633.468990833865	634.845418994095	1185.579739992711	582.470062753257	556.475288641792	1188.016945521259	494.473444307003	563.280370047606	1186.809402470757	753.021497147575	349.310229943850	1118.704747469863	632.012447998480	274.926045186836	1213.075556486130	556.242352514749	333.277670195953	1212.208277127480	469.244532617872	327.950532760953	1143.785598993044	407.879058764777	320.598932104471	1002.265810075873	368.080704315449	270.840329826349	986.523397696484	239.533405267182	325.790834086083	1159.212605848274	405.552992542063	572.013569669554	1087.891439937967	303.554701960683	636.317962322269	1128.530183707263	206.969063529322	574.369536602199	994.129257742401	42.775731647390	549.922804112449	1165.132286383087	97.388496119657	583.608281891168	1078.437351532957	37.367295824386	623.745049658374	1286.437483046891	44.972079848402	609.487966638121	794.491517113555	176.774004566842	363.579392536052	851.947828733560	133.748715788543	281.600009135183	957.374021102518	140.878663894553	303.594821749485	1035.049316433329	33.957782954997	270.946639752059	1084.425224547327	1087.479905901806	174.398296191635	1272.243812004969	902.691550665102	166.472445158223	1068.366708821063	1087.903979727103	763.153902112580	1187.775524420853	855.172795109486	765.737122176135	
